PathFileType	4	(X/Y/Z)	C:\Users\°ÂÌØÂü\Desktop\20210112\bx_y_0_901-Unnamed.trc
DataRate	CameraRate	NumFrames	NumMarkers	Units	OrigDataRate	OrigDataStartFrame	OrigNumFrames
50.00	50.00	       8	0	mm	50.00	343	       457
Frame#	Time	
		

343	6.840	-578.32159	-10.88318	1051.40808	-710.15149	294.36462	1531.60999	-677.18616	141.24850	572.50421	-775.74438	92.97272	1051.46448	-677.68817	77.67092	577.16119	-621.70941	276.70282	876.35266	-572.24774	-3.67258	804.12354	-710.41840	150.78729	215.18932	-672.71155	268.10922	745.95032	-707.52838	246.36856	640.49084	-676.83716	-51.48842	718.21552	-716.86615	242.33521	576.94354	-656.06592	16.99604	518.89020	-759.60498	251.08678	505.51294	-664.25977	202.81726	531.87311	-694.74487	-67.38716	1546.70032	-664.16473	-68.49280	162.34157	-565.41382	210.74275	813.27863	-770.18823	221.70297	206.18871	-882.79272	296.17874	144.55966	-675.65332	54.71083	158.01395	-604.03906	19.61955	166.98042	-675.53369	173.84918	155.64583	-594.08832	221.82727	172.90269	-666.90192	298.56992	160.45839	-629.56488	306.62125	163.19554	-559.98071	259.46011	165.62636	-528.27954	304.45236	146.40370	-764.66412	110.74845	1843.41650	-517.43158	-72.24576	142.83069	-795.53876	171.53932	184.51897	-766.05078	-6.54819	208.50336	-794.70862	54.40534	174.84148	-568.25018	216.84676	1069.95874	-752.38690	-36.22039	489.76797	-559.42126	-37.71187	162.58682	-876.00970	-78.74700	141.30463				-714.72961	76.94770	216.32397	-688.37585	-31.05688	614.40118	-702.77747	-27.73372	567.28436	-622.65253	-79.02630	157.76251	
344	6.860	-578.84918	-11.13027	1051.36646	-710.70306	294.00247	1532.04846	-678.09119	141.18567	572.87738	-776.41602	92.94160	1051.57849	-677.83459	77.66113	577.07355	-622.25354	276.49683	876.48718	-572.67407	-4.07897	804.14056	-710.26532	150.90355	215.30270	-673.46301	267.85620	746.18433	-707.88934	246.55292	640.75012	-677.41577	-51.60271	718.31964	-716.94916	242.27655	577.13031	-656.03961	16.77013	518.77557	-759.89478	251.00604	505.30975	-664.67596	202.75992	531.48682	-695.38123	-67.76505	1546.75659	-664.22968	-68.51014	161.98848	-565.63208	210.82784	813.38794	-770.23187	221.63850	206.36981	-882.66003	296.11053	144.51537	-675.53595	54.74093	158.15746	-604.11017	19.65283	167.03265	-675.38452	173.58051	155.89319	-594.11420	221.89214	172.71803	-666.78918	298.60675	160.54988	-629.41443	305.92142	162.42509	-559.99701	259.39771	165.64182	-528.24908	304.32480	146.46544	-765.17810	110.32616	1843.54614	-517.41736	-72.53072	142.94576	-795.31812	171.56067	184.62440	-766.11884	-6.99153	208.34734	-794.90918	54.19839	174.58110	-568.51660	216.59196	1070.46326	-752.39606	-36.46168	489.86133	-559.42126	-37.71187	162.58682	-875.82855	-78.79845	141.17526				-714.89014	76.61836	216.74561	-688.94537	-31.26092	614.16071	-702.85162	-27.75545	567.10236	-622.65820	-79.06425	157.66615	
345	6.880	-579.35516	-10.94924	1051.36682	-711.19031	293.84341	1532.29785	-678.54254	141.22910	572.58905	-776.81049	92.84229	1051.57092	-677.83459	77.66113	577.07355	-622.84723	276.69162	877.08215	-573.02039	-4.32458	804.31525	-710.23938	151.33693	215.61467	-674.21466	267.99701	746.60754	-708.19238	246.51791	640.68744	-677.75818	-51.70080	718.29260	-717.62183	242.78624	577.25000	-656.23529	16.69827	518.80072	-760.39441	251.20082	505.26553	-665.21539	202.87830	531.43103	-695.58881	-67.81346	1546.86719	-664.25916	-68.34267	161.83945	-566.64941	210.83856	813.62988	-770.21344	221.76889	206.25374	-882.55640	296.06802	144.49452	-675.56189	54.52985	158.52875	-604.18024	19.53753	167.11676	-675.35577	173.87616	155.69447	-594.03033	221.92841	172.85423	-666.84735	298.67288	160.57143	-629.74725	306.74509	163.02924	-560.11389	259.45813	165.84106	-528.28619	304.27109	146.31157	-765.52124	109.60674	1843.67859	-517.20398	-72.40503	142.87691	-795.15350	171.71159	184.52356	-766.86383	-7.17049	208.40463	-795.12665	53.86881	174.82982	-569.11591	216.50063	1070.31726	-752.63098	-36.89392	489.79370	-559.73846	-37.51619	162.88763	-875.95447	-78.70157	141.15225				-715.07477	76.32922	216.74318	-689.10626	-31.56050	614.15234	-703.08051	-27.71022	566.89783	-622.64673	-79.00107	157.80469	
346	6.900	-579.49030	-10.84800	1051.32922	-711.73792	293.65817	1532.36548	-678.88940	141.18677	572.81433	-777.03900	92.78561	1051.42542	-678.27246	77.29797	577.17114	-623.40710	276.78564	877.31079	-573.30420	-4.50901	804.24054	-710.17950	151.25964	215.64452	-675.18781	268.05847	746.57367	-709.17261	246.44083	640.49908	-677.85632	-51.84713	718.23883	-717.90466	243.06540	577.52246	-656.20020	16.38328	519.03363	-761.03296	251.45441	505.37476	-665.55530	202.70917	532.01190	-695.92993	-68.19789	1546.68665	-664.37109	-68.61711	161.87073	-567.43512	211.12234	813.70905	-770.23065	221.70607	206.28891	-882.58478	296.15625	144.63521	-675.53003	54.54575	158.43410	-604.22034	19.50328	167.18076	-675.64691	173.97839	155.56297	-594.11420	221.89214	172.71803	-666.91931	298.68781	160.66063	-629.62866	306.66315	163.07784	-560.15015	259.54053	165.69713	-528.19830	304.30228	146.37737	-765.78564	109.12311	1843.62769	-517.32336	-72.52555	142.83887	-795.54889	171.54558	184.77417	-766.83667	-7.33229	208.03331	-795.22363	53.64415	174.76176	-570.14044	216.50893	1070.27844	-753.16467	-37.22918	489.67596	-560.04047	-37.63209	163.30630	-876.20807	-78.65662	141.19640				-715.10754	76.15575	216.75842	-689.18439	-31.75391	613.97125	-703.01257	-28.16831	567.26636	-622.76227	-79.11691	157.71805	
347	6.920	-579.84210	-10.81759	1051.50952	-712.05426	293.22385	1532.43457	-679.39166	140.83762	572.67969	-777.59399	92.32367	1051.72534	-678.63702	77.27724	577.45746				-573.74329	-4.09159	804.15204	-710.82465	151.02579	215.87311	-675.18781	268.05847	746.57367	-709.91840	246.48593	640.83368	-678.00476	-51.76138	718.02203	-718.88684	242.55634	577.18207	-656.47498	16.18832	519.10327	-761.60846	250.98448	505.10812	-666.00439	203.04276	531.95801	-696.12299	-68.41608	1546.65186	-664.36694	-68.56147	161.91861	-567.59106	211.07780	813.68353	-770.27209	221.76518	206.29794	-882.56525	295.91370	144.40141	-675.56189	54.52985	158.52875	-604.33429	19.49824	167.19444	-675.39996	173.73459	155.76469	-594.15417	221.85127	172.83569	-666.84735	298.67288	160.57143	-629.64026	306.74823	163.11366	-560.06573	259.49756	165.93958	-528.20319	304.42114	146.46489	-766.01807	108.82272	1843.73328	-516.99286	-72.56570	143.33987	-795.52295	171.60437	184.60031	-766.99280	-7.48159	207.88452	-795.38641	53.68544	174.58159	-570.27582	216.38809	1070.29285	-753.47479	-37.73964	489.79825	-560.04047	-37.63209	163.30630	-875.80096	-78.78884	141.48030				-715.65253	75.58026	216.74748	-689.18298	-31.81899	613.85529	-703.08173	-28.68836	567.45319	-622.80341	-79.10201	157.65500	
348	6.940	-580.10144	-11.03157	1051.50745	-712.39728	293.15353	1532.49146	-679.58722	140.89876	572.54468	-778.05872	92.08756	1051.89685	-679.19830	76.97911	577.46277	-625.23322	276.01468	876.47943	-574.16211	-4.35559	804.02496	-710.62274	151.29802	215.93529	-676.07233	267.34610	745.84943	-710.61615	246.46312	640.86768	-678.17200	-51.80137	717.90106	-719.16406	242.41464	577.10120	-656.92023	16.28638	518.79034	-761.98981	250.87279	505.10635	-666.62372	203.16779	531.70789	-696.62372	-68.67839	1546.69995	-664.50934	-68.63750	161.91647	-567.94135	211.25661	813.55682	-770.32397	221.71695	206.12440	-882.57581	295.99649	144.46762	-675.68781	54.56050	158.46274	-604.16901	19.62263	167.30249	-675.64691	173.97839	155.56297	-594.14014	221.91852	172.90504	-666.75470	298.71146	160.71906	-629.62817	306.86682	163.25797	-560.17621	259.68997	166.06212	-528.19830	304.30228	146.37737	-765.92609	108.71287	1843.75732	-517.04218	-72.74678	143.43881	-795.52539	171.78972	184.63588	-767.21429	-7.71738	207.92740	-795.33221	53.62894	174.54933	-570.84735	216.69617	1070.08948	-753.44611	-38.07217	489.97311	-560.28217	-37.69295	163.40587	-875.61420	-78.86797	141.32495				-714.92145	76.14568	217.49748	-689.53436	-31.96501	614.06781	-703.18329	-28.70247	567.56256	-622.55414	-79.28817	157.81416	
349	6.960	-580.31305	-11.02216	1051.53125	-712.68488	293.29886	1532.66577	-679.82788	140.70461	572.53790	-778.44720	92.00417	1051.72253	-679.19830	76.97911	577.46277	-625.64722	276.13342	876.51508	-574.30701	-4.15056	804.18921	-710.52960	151.25000	215.83722	-676.65222	266.83813	746.24744	-710.97992	246.69545	641.08862	-678.17255	-51.76088	717.92432	-719.29010	242.41765	577.26776	-657.18298	16.23978	518.79486	-762.26776	250.93510	505.14172	-666.65015	203.01784	531.70032	-696.69464	-68.67521	1546.64087	-664.36951	-68.69761	161.85266	-568.42096	211.59999	813.52661	-770.25494	221.82800	206.26277	-882.74536	296.02060	144.44994	-675.66284	54.63464	158.49980	-604.23938	19.62566	167.16402	-675.53369	173.84918	155.64583	-594.03033	221.92841	172.85423	-666.81110	298.70905	160.64574	-629.79767	306.79367	162.93837	-560.18909	259.57080	165.92879	-528.11450	304.37653	146.40186	-765.60205	108.45023	1843.87964	-516.90344	-72.69423	143.52409	-795.37384	171.64621	184.51862	-767.37085	-7.67196	208.04987	-795.33221	53.62894	174.54933	-571.29431	216.98097	1070.03528	-753.62036	-37.96228	489.90674	-560.16772	-37.48876	163.52055	-875.97906	-78.71741	141.10751				-715.02002	76.00141	217.45274	-689.68042	-31.81361	614.01337	-703.45325	-28.50516	567.24091	-622.77655	-79.12417	157.76128	
350	6.980	-580.50836	-10.91805	1051.44788	-712.98047	293.28229	1532.75391	-679.82788	140.70461	572.53790	-778.71899	91.84270	1051.70496	-679.59070	76.52551	577.28607	-626.26941	276.38861	876.79871	-574.58124	-4.27756	804.19928	-710.36438	151.33809	215.69412	-677.17371	267.12253	746.50714	-711.04211	246.62700	640.98175	-678.65210	-51.91703	717.85461	-719.50641	242.13971	577.19196	-657.22449	15.85415	518.95551	-762.16656	250.68629	504.90192	-666.91644	202.93275	531.78479	-696.60992	-68.83203	1546.68799	-664.45001	-68.70743	162.08073	-568.93494	211.60379	813.85303	-770.25494	221.82800	206.26277	-882.48743	296.05096	144.59955	-675.61383	54.39039	158.67982	-604.28760	19.59797	167.16064	-675.51141	173.86520	155.68504	-594.07037	221.88754	172.97188	-666.95551	298.65161	160.58632	-629.79889	306.73450	162.96196	-560.20538	259.50839	165.94424	-528.19830	304.30228	146.37737	-765.03485	108.17043	1844.02209	-517.23138	-72.41133	143.19797	-795.64056	171.81523	184.60329	-767.38501	-7.65224	207.81064	-795.76892	53.44405	174.90060	-571.58734	216.77882	1070.12024	-753.97083	-37.96090	489.87729	-560.20905	-37.42348	163.54822	-875.99139	-78.70409	141.37393				-714.97498	75.88034	217.58665	-689.90680	-32.27388	614.08685	-703.74170	-28.61452	567.17114	-622.80664	-79.17383	157.68674	
